HIERARCHY
ROOT Hips
{
	OFFSET 0.00000 0.00000 0.00000
	CHANNELS 6 Xposition Yposition Zposition Zrotation Yrotation Xrotation 
	JOINT LHipJoint
	{
		OFFSET 0 0 0
		CHANNELS 3 Zrotation Yrotation Xrotation
		JOINT LeftHip
		{
			OFFSET 2.10660 -1.59283 1.11709
			CHANNELS 3 Zrotation Yrotation Xrotation
			JOINT LeftKnee
			{
				OFFSET 2.03633 -5.59477 0.00000
				CHANNELS 3 Zrotation Yrotation Xrotation
				JOINT LeftAnkle
				{
					OFFSET 2.74354 -7.53782 0.00000
					CHANNELS 3 Zrotation Yrotation Xrotation
					JOINT LeftToe
					{
						OFFSET 0.09177 -0.25215 1.99109
						CHANNELS 3 Zrotation Yrotation Xrotation
						End Site
						{
							OFFSET 0.00000 -0.00000 1.01710
						}
					}
				}
			}
		}
	}
	JOINT RHipJoint
	{
		OFFSET 0 0 0
		CHANNELS 3 Zrotation Yrotation Xrotation
		JOINT RightHip
		{
			OFFSET -1.86456 -1.59283 1.11709
			CHANNELS 3 Zrotation Yrotation Xrotation
			JOINT RightKnee
			{
				OFFSET -2.09328 -5.75123 0.00000
				CHANNELS 3 Zrotation Yrotation Xrotation
				JOINT RightAnkle
				{
					OFFSET -2.65375 -7.29113 0.00000
					CHANNELS 3 Zrotation Yrotation Xrotation
					JOINT RightToe
					{
						OFFSET -0.08891 -0.24428 1.95541
						CHANNELS 3 Zrotation Yrotation Xrotation
						End Site
						{
							OFFSET -0.00000 -0.00000 0.99928
						}
					}
				}
			}
		}
	}
	JOINT lowerback
	{
		OFFSET 0 0 0
		CHANNELS 3 Zrotation Yrotation Xrotation
		JOINT Chest
		{
			OFFSET -0.11002 1.82513 -0.30878
			CHANNELS 3 Zrotation Yrotation Xrotation
			JOINT Chest2
			{
				OFFSET 0.02136 1.89008 0.15052
				CHANNELS 3 Zrotation Yrotation Xrotation
				JOINT lowerneck
				{
					OFFSET 0 0 0
					CHANNELS 3 Zrotation Yrotation Xrotation
					JOINT Neck
					{
						OFFSET -0.02611 1.82648 0.12298
						CHANNELS 3 Zrotation Yrotation Xrotation
						JOINT Head
						{
							OFFSET 0.06033 1.80858 -0.32888
							CHANNELS 3 Zrotation Yrotation Xrotation
							End Site
							{
								OFFSET 0.01403 1.85203 -0.12607
							}
						}
					}
				}
				JOINT LeftCollar
				{
					OFFSET 0 0 0
					CHANNELS 3 Zrotation Yrotation Xrotation
					JOINT LeftShoulder
					{
						OFFSET 3.64598 0.79256 -0.42249
CHANNELS 3 Zrotation Xrotation Yrotation
						JOINT LeftElbow
						{
OFFSET 0 -4.923830 0.000000
CHANNELS 3 Zrotation Xrotation Yrotation
							JOINT LeftWrist
							{
OFFSET 0 -2.658260 0.000000
CHANNELS 3 Zrotation Xrotation Yrotation
								JOINT lhand
								{
									OFFSET 0 0 0
CHANNELS 3 Zrotation Xrotation Yrotation
									JOINT LFingers
									{
OFFSET 0 -0.733430 0.000000
CHANNELS 3 Zrotation Xrotation Yrotation
										End Site
										{
OFFSET 0 -0.591310 0.000000
										}
									}
								}
								JOINT LThumb
								{
OFFSET 0 0.000000 0.000000
CHANNELS 3 Zrotation Xrotation Yrotation
									End Site
									{
OFFSET 0 -0.600340 0.600340
									}
								}
							}
						}
					}
				}
				JOINT RightCollar
				{
					OFFSET 0 0 0
					CHANNELS 3 Zrotation Yrotation Xrotation
					JOINT RightShoulder
					{
						OFFSET -3.83899 0.50520 -0.46242
CHANNELS 3 Zrotation Xrotation Yrotation
						JOINT RightElbow
						{
OFFSET 0 -4.636040 0.000000
CHANNELS 3 Zrotation Xrotation Yrotation
							JOINT RightWrist
							{
OFFSET 0 -2.862430 -0.000000
CHANNELS 3 Zrotation Xrotation Yrotation
								JOINT rhand
								{
									OFFSET 0 0 0
CHANNELS 3 Zrotation Xrotation Yrotation
									JOINT RFingers
									{
OFFSET 0 -0.758910 0.000000
CHANNELS 3 Zrotation Xrotation Yrotation
										End Site
										{
OFFSET 0 -0.611850 0.000000
										}
									}
								}
								JOINT RThumb
								{
OFFSET 0 0.000000 0.000000
CHANNELS 3 Zrotation Xrotation Yrotation
									End Site
									{
OFFSET 0 -0.621190 0.621190
									}
								}
							}
						}
					}
				}
			}
		}
	}
}
MOTION
Frames: 11
Frame Time: 0.008333333333333333
3.878989 14.390257 -15.266659 357.750255 -4.795636 -366.044144 0.000000 0.000000 0.000000 -6.338768 -3.741449 -42.669436 12.091028 18.428849 66.277057 0.081341 -13.043675 -10.158813 0.201993 -2.894110 -7.984146 0.000000 0.000000 0.000000 7.890434 -10.850409 11.829991 -3.446195 -11.384607 33.588174 -3.712567 -1.077853 -36.934988 -1.739365 8.299639 -23.628449 -4.415669 0.834271 15.486837 2.212903 0.501553 -1.304438 4.808676 0.560383 -10.222366 -1.024592 -2.929997 -10.259860 2.109168 -4.358778 20.758427 0.432567 -1.949922 8.188837 0.000000 0.000000 0.000000 27.604414 -64.516708 -23.124262 37.749303 -46.678439 16.782944 10.307636 15.441987 -14.106080 0.000000 0.000000 0.000000 -7.125000 0.000000 0.000000 -15.640045 43.737705 -0.500152 0.000000 0.000000 0.000000 -72.539069 -1.070347 -20.473548 -14.977543 -24.114772 -3.216729 24.445469 10.246998 -6.960294 0.000000 0.000000 0.000000 7.125000 0.000000 0.000000 34.727112 21.675303 24.249047
3.683161 14.353060 -15.238840 357.928427 -3.018410 -366.626943 0.000000 0.000000 0.000000 -6.095832 -4.863678 -42.071664 12.036635 18.406060 66.104907 0.028163 -13.480241 -9.805744 0.292107 -3.475171 -9.604510 0.000000 0.000000 0.000000 8.930774 -11.330188 13.007311 -3.504556 -11.470091 33.882350 -3.917507 -2.698413 -38.483749 -1.869052 8.587554 -24.513485 -4.237232 0.977511 15.171102 2.123416 0.729824 -1.272003 4.549570 0.650329 -10.026348 -0.915927 -3.241904 -9.467131 2.226718 -4.814120 20.173431 0.425502 -2.158947 7.858208 0.000000 0.000000 0.000000 29.548815 -64.481852 -23.112336 36.399497 -45.785982 15.808191 12.993746 21.723055 -12.217978 0.000000 0.000000 0.000000 -7.125000 0.000000 0.000000 -12.758884 42.154528 -0.911983 0.000000 0.000000 0.000000 -72.536437 0.084532 -19.838050 -15.180123 -24.396492 -3.299969 24.254460 9.623331 -6.450936 0.000000 0.000000 0.000000 7.125000 0.000000 0.000000 34.769607 22.158091 23.788930
3.572944 14.306882 -15.200059 358.085122 -0.800934 -367.034482 0.000000 0.000000 0.000000 -6.278343 -6.581129 -42.004371 12.121326 18.441457 66.372918 0.010777 -13.604392 -9.680843 0.483205 -4.457616 -12.367876 0.000000 0.000000 0.000000 9.550436 -12.516120 14.219378 -3.447806 -11.386952 33.596198 -4.144712 -3.822631 -39.966117 -1.812463 8.464108 -24.132774 -4.257639 0.982343 14.975247 1.956768 0.725476 -0.984804 4.375450 0.626285 -9.592491 -1.652792 -3.562272 -10.682357 3.019943 -5.331364 21.442330 0.727942 -2.350417 8.559597 0.000000 0.000000 0.000000 33.769900 -65.388810 -22.716083 35.748361 -45.339151 15.343194 11.836166 21.921213 -11.602186 0.000000 0.000000 0.000000 -7.125000 0.000000 0.000000 -13.612988 41.433659 -1.223524 0.000000 0.000000 0.000000 -72.584025 1.395222 -19.128106 -15.504139 -24.843680 -3.434941 24.379653 9.372875 -6.726938 0.000000 0.000000 0.000000 7.125000 0.000000 0.000000 34.757752 21.893494 24.053847
3.688556 14.275313 -15.104628 358.194125 -1.206587 -367.056880 0.000000 0.000000 0.000000 -6.698752 -7.411270 -41.692797 12.410435 18.558834 67.283881 0.094944 -13.220496 -10.430940 0.215898 -2.991082 -8.254002 0.000000 0.000000 0.000000 8.738804 -12.213412 14.662430 -3.430288 -11.360982 33.507139 -4.002392 -4.503770 -39.562481 -2.166857 9.205315 -26.439635 -4.715759 1.137344 15.127227 1.949962 0.844920 -0.579713 4.600350 0.688191 -9.255042 -1.494876 -3.807734 -10.032896 3.432546 -5.764775 20.652172 0.809965 -2.522450 8.194102 0.000000 0.000000 0.000000 43.620109 -64.464393 -17.863284 34.636893 -44.551106 14.558015 11.221759 20.446728 -12.174844 0.000000 0.000000 0.000000 -7.125000 0.000000 0.000000 -14.293469 41.940647 -1.103649 0.000000 0.000000 0.000000 -72.581651 1.382671 -17.557678 -16.220503 -25.818764 -3.741527 23.445415 9.948735 -7.730874 0.000000 0.000000 0.000000 7.125000 0.000000 0.000000 33.992440 21.123792 24.018680
4.151354 14.339079 -14.895425 358.143531 -4.408484 -365.750180 0.000000 0.000000 0.000000 -8.071067 -6.972668 -41.466010 12.605650 18.635130 67.896066 0.422868 -11.624699 -13.230425 0.070400 -1.711077 -4.707865 0.000000 0.000000 0.000000 6.353759 -10.213098 13.405153 -3.377318 -11.282156 33.237536 -3.280357 -3.870402 -35.749451 -2.786266 10.340341 -30.086464 -5.476619 0.841686 15.484186 2.233745 0.320686 -0.589307 5.474880 0.487365 -9.418289 -1.704312 -4.111237 -10.075350 3.363082 -6.158193 20.891826 0.777538 -2.733046 8.297701 0.000000 0.000000 0.000000 57.476828 -59.257189 -10.538028 34.408248 -44.384876 14.397841 10.520129 17.173327 -11.670917 0.000000 0.000000 0.000000 -7.125000 0.000000 0.000000 -14.768570 41.380061 -1.352365 0.000000 0.000000 0.000000 -73.056562 2.124338 -12.906634 -19.792608 -30.391710 -5.426102 20.457317 11.105186 -10.971212 0.000000 0.000000 0.000000 7.125000 0.000000 0.000000 31.582194 18.561901 23.812964
4.839263 14.473581 -14.530576 357.586180 -9.695143 -364.284172 0.000000 0.000000 0.000000 -9.934774 -4.697773 -40.537957 12.636992 18.647140 67.994256 0.821021 -10.458958 -16.685849 0.014251 0.717100 1.971019 0.000000 0.000000 0.000000 3.841505 -6.253765 10.577312 -3.544770 -11.528684 34.084240 -1.564253 -7.829600 -27.587981 -5.621827 14.051569 -43.444350 -5.017187 0.594472 14.138481 2.246844 0.144469 0.249727 5.232558 0.301952 -7.709721 -2.018636 -4.681328 -9.931064 4.461996 -7.076385 19.607027 1.106694 -3.116213 7.923525 0.000000 0.000000 0.000000 68.366061 -54.933092 -2.958563 33.283855 -43.547013 13.617242 10.292445 14.957134 -11.035760 0.000000 0.000000 0.000000 -7.125000 0.000000 0.000000 -14.801055 40.737185 -1.595369 0.000000 0.000000 0.000000 -72.660063 2.935701 -12.454358 -23.617639 -34.757247 -7.487435 13.481365 11.321657 -15.839913 0.000000 0.000000 0.000000 7.125000 0.000000 0.000000 26.692829 14.630399 21.618429
5.573312 14.610054 -14.020889 357.200912 -16.217408 -363.116596 0.000000 0.000000 0.000000 -12.739927 -0.741290 -38.779017 12.381346 18.547246 67.192543 1.358789 -8.918747 -20.889584 0.109184 2.129943 5.864833 0.000000 0.000000 0.000000 0.722237 -1.524125 7.554266 -3.720562 -11.778947 34.954553 -0.335213 -8.455395 -17.119541 -7.482792 15.725042 -50.677075 -5.735620 0.465817 16.339106 2.995726 -0.208016 -1.346094 6.635848 0.344010 -10.681710 -2.311881 -5.395552 -11.329454 3.332698 -7.868092 21.109885 0.642829 -3.583663 8.675649 0.000000 0.000000 0.000000 70.009670 -46.971858 -2.536514 32.866760 -43.227416 13.330751 9.772761 12.587249 -11.377403 0.000000 0.000000 0.000000 -7.125000 0.000000 0.000000 -15.334963 41.025173 -1.544375 0.000000 0.000000 0.000000 -73.874592 2.937264 -9.538642 -25.765141 -36.975694 -8.746041 8.041044 11.303380 -20.427950 0.000000 0.000000 0.000000 7.125000 0.000000 0.000000 22.916026 10.500083 20.078725
6.217798 14.703186 -13.507618 356.606164 -22.227509 -362.165533 0.000000 0.000000 0.000000 -15.251011 3.815574 -37.591405 12.030630 18.403592 66.085907 1.809754 -8.139794 -24.115660 0.332796 3.707450 10.255155 0.000000 0.000000 0.000000 -1.667391 0.707034 3.862587 -3.763887 -11.839373 35.166082 0.228857 -10.881198 -11.299924 -6.248218 14.664602 -45.969948 -5.600963 0.162193 16.515036 3.158173 -0.580943 -1.477199 6.844077 0.176051 -10.870792 -2.950482 -6.187226 -10.932502 3.813443 -8.944871 20.454442 0.802399 -4.117913 8.469109 0.000000 0.000000 0.000000 72.040249 -41.568364 1.252896 32.009402 -42.554576 12.747198 9.611779 11.543425 -11.452399 0.000000 0.000000 0.000000 -7.125000 0.000000 0.000000 -15.493194 41.083653 -1.537825 0.000000 0.000000 0.000000 -74.231237 2.156511 -8.942037 -26.957661 -38.138830 -9.472996 2.817017 8.471988 -21.928947 0.000000 0.000000 0.000000 7.125000 0.000000 0.000000 19.700342 8.995461 17.472789
6.783223 14.789866 -13.044062 355.755925 -28.500099 -361.464888 0.000000 0.000000 0.000000 -17.366354 7.849360 -36.171582 11.569705 18.202753 64.618148 2.326381 -6.870432 -27.529857 0.550250 4.752059 13.202719 0.000000 0.000000 0.000000 -3.571827 1.483874 -0.105398 -3.646938 -11.675094 34.592126 0.453824 -13.030239 -10.631461 -1.732612 8.260488 -23.522845 -5.217928 0.236669 16.759785 3.163921 -0.416270 -1.443928 6.593373 0.234794 -11.001527 -2.352375 -6.362547 -11.728355 3.360707 -9.281925 21.454942 0.474641 -4.253460 8.915887 0.000000 0.000000 0.000000 72.640805 -37.667050 3.880854 31.251395 -41.942163 12.237566 9.534334 10.492531 -11.665941 0.000000 0.000000 0.000000 -7.125000 0.000000 0.000000 -15.616621 41.284613 -1.471371 0.000000 0.000000 0.000000 -73.694597 1.111474 -9.784351 -27.709928 -38.847830 -9.941219 0.323468 7.290288 -23.743343 0.000000 0.000000 0.000000 7.125000 0.000000 0.000000 18.119892 7.166723 16.591877
7.202584 14.817665 -12.674671 355.155504 -34.844415 -360.828531 0.000000 0.000000 0.000000 -19.172870 12.069342 -35.784460 11.269122 18.064288 63.652513 2.770411 -5.756885 -30.295388 0.698930 5.343435 14.890917 0.000000 0.000000 0.000000 -4.699254 3.041455 -4.364672 -3.649983 -11.679453 34.607252 0.727304 -16.263055 -13.038056 -0.052794 -1.125224 3.096500 -5.102008 0.433804 17.090781 3.126427 -0.149459 -1.384893 6.423330 0.356855 -11.167109 -2.827107 -6.875955 -11.631870 3.806590 -9.984656 20.871483 0.626479 -4.592824 8.771621 0.000000 0.000000 0.000000 73.178453 -34.287059 6.873410 29.929678 -40.832952 11.363662 8.709656 7.891554 -12.131811 0.000000 0.000000 0.000000 -7.125000 0.000000 0.000000 -16.454958 41.660183 -1.397727 0.000000 0.000000 0.000000 -73.729081 -0.218891 -9.516009 -28.078926 -39.188738 -10.173494 -1.122235 5.040299 -23.211435 0.000000 0.000000 0.000000 7.125000 0.000000 0.000000 17.276371 7.591600 15.587604
7.496595 14.832250 -12.290403 355.481790 -39.875190 -360.845880 0.000000 0.000000 0.000000 -21.616651 15.790904 -34.978937 10.765122 17.818213 62.016282 3.142408 -5.575254 -32.396277 0.990341 6.333879 17.756328 0.000000 0.000000 0.000000 -6.495909 3.276968 -8.225353 -3.659942 -11.693576 34.656519 0.492292 -16.231596 -17.282686 -2.800569 -10.364799 30.166581 -5.731871 0.183590 17.067832 3.308552 -0.596641 -1.271212 7.107931 0.177203 -10.954272 -3.223052 -6.903550 -10.939774 3.535094 -9.870845 20.236803 0.648905 -4.626554 8.430812 0.000000 0.000000 0.000000 71.684913 -30.427587 8.033944 30.081207 -40.962837 11.462757 7.851051 4.235866 -12.646260 0.000000 0.000000 0.000000 -7.125000 0.000000 0.000000 -17.344164 42.074059 -1.294954 0.000000 0.000000 0.000000 -74.419562 -2.377318 -10.372684 -28.494133 -39.567118 -10.436948 -1.290259 3.563800 -23.792190 0.000000 0.000000 0.000000 7.125000 0.000000 0.000000 17.156881 7.026896 15.666798
